<svg width="518" height="120" viewBox="0 0 518 120" fill="none" xmlns="http://www.w3.org/2000/svg">
<g clip-path="url(#clip0_1_3)">
<path d="M-3.9504e-06 27.6619C-2.59133e-06 19.889 8.47971 15.0878 15.145 19.087L40.2899 34.174C46.314 37.7884 50 44.2986 50 51.3238V68.6762C50 75.7015 46.314 82.2116 40.2899 85.8261L15.1449 100.913C8.47968 104.912 -1.66178e-05 100.111 -1.52588e-05 92.3381L-3.9504e-06 27.6619Z" fill="#FA776C"/>
<path d="M103.855 120C109.151 120 111.85 113.638 108.169 109.83L94.8962 96.0995C91.1279 92.2013 85.9384 90 80.5165 90H55.5397C51.9148 90 48.3581 90.9851 45.2498 92.8501L18.5749 108.855C13.3568 111.986 15.5766 120 21.6619 120H103.855Z" fill="#624CF5"/>
<path d="M103.855 2.20685e-06C109.151 3.33234e-06 111.85 6.36198 108.169 10.1701L94.8962 23.9004C91.1279 27.7987 85.9383 30 80.5165 30H55.5397C51.9148 30 48.3581 29.0148 45.2498 27.1498L18.5749 11.1449C13.3568 8.01405 15.5766 -1.65519e-05 21.6619 -1.52588e-05L103.855 2.20685e-06Z" fill="#624CF5"/>
<path d="M86 60C86 51.7157 79.2843 45 71 45C62.7157 45 56 51.7157 56 60C56 68.2843 62.7157 75 71 75C79.2843 75 86 68.2843 86 60Z" fill="#FA776C"/>
<path d="M116.294 29.0865H132.177L148.952 70.0127H149.666L166.441 29.0865H182.324V90H169.832V50.3527H169.326L153.562 89.7026H145.056L129.292 50.204H128.786V90H116.294V29.0865ZM192.934 90V29.0865H233.98V39.7047H205.813V54.2192H231.868V64.8375H205.813V79.3818H234.099V90H192.934ZM286.573 44.3149L270.601 90H256.324L240.352 44.3149H253.736L263.224 77.0023H263.7L273.158 44.3149H286.573ZM312.404 90.8923C307.705 90.8923 303.66 89.9405 300.269 88.037C296.898 86.1136 294.301 83.3971 292.477 79.8874C290.652 76.3579 289.74 72.184 289.74 67.3656C289.74 62.6662 290.652 58.5419 292.477 54.9926C294.301 51.4432 296.869 48.6771 300.18 46.6943C303.511 44.7114 307.417 43.72 311.899 43.72C314.913 43.72 317.718 44.2058 320.316 45.1774C322.933 46.1292 325.214 47.5667 327.157 49.4901C329.12 51.4135 330.647 53.8326 331.737 56.7474C332.828 59.6424 333.373 63.0331 333.373 66.9195V70.3994H294.796V62.5473H321.446C321.446 60.723 321.05 59.107 320.256 57.6992C319.463 56.2913 318.363 55.1909 316.955 54.3977C315.567 53.5847 313.951 53.1782 312.107 53.1782C310.183 53.1782 308.478 53.6244 306.991 54.5167C305.524 55.3891 304.374 56.5689 303.541 58.0561C302.708 59.5234 302.282 61.1593 302.262 62.9637V70.4291C302.262 72.6896 302.678 74.6427 303.511 76.2885C304.364 77.9343 305.563 79.2033 307.11 80.0956C308.657 80.9879 310.491 81.434 312.612 81.434C314.02 81.434 315.309 81.2357 316.479 80.8392C317.649 80.4426 318.65 79.8477 319.483 79.0546C320.316 78.2615 320.95 77.2899 321.387 76.1398L333.105 76.9131C332.511 79.7288 331.291 82.1875 329.447 84.2894C327.623 86.3714 325.263 87.9973 322.368 89.1672C319.493 90.3173 316.172 90.8923 312.404 90.8923ZM354.312 63.5883V90H341.642V44.3149H353.717V52.3752H354.253C355.264 49.7182 356.959 47.6163 359.339 46.0697C361.718 44.5032 364.603 43.72 367.994 43.72C371.166 43.72 373.932 44.414 376.292 45.802C378.652 47.19 380.486 49.1729 381.795 51.7506C383.103 54.3085 383.758 57.3621 383.758 60.9114V90H371.087V63.1719C371.107 60.376 370.393 58.1949 368.946 56.6284C367.498 55.0421 365.505 54.249 362.967 54.249C361.262 54.249 359.755 54.6158 358.446 55.3495C357.157 56.0831 356.146 57.1539 355.413 58.5617C354.699 59.9497 354.332 61.6252 354.312 63.5883ZM418.044 44.3149V53.8326H390.532V44.3149H418.044ZM396.778 33.3695H409.448V75.9613C409.448 77.1312 409.626 78.0433 409.983 78.6977C410.34 79.3322 410.836 79.7783 411.471 80.0361C412.125 80.2939 412.878 80.4228 413.731 80.4228C414.326 80.4228 414.921 80.3732 415.516 80.2741C416.11 80.1551 416.567 80.0659 416.884 80.0064L418.877 89.4349C418.242 89.6332 417.35 89.8612 416.2 90.119C415.05 90.3966 413.652 90.5651 412.006 90.6246C408.952 90.7436 406.275 90.3371 403.975 89.4051C401.695 88.4732 399.92 87.0257 398.651 85.0627C397.382 83.0996 396.758 80.6211 396.778 77.6269V33.3695Z" fill="black"/>
</g>
<defs>
<clipPath id="clip0_1_3">
<rect width="518" height="120" fill="white"/>
</clipPath>
</defs>
</svg>
